<svg width="24" height="24" viewBox="0 0 24 24" fill="none" xmlns="http://www.w3.org/2000/svg">
<path d="M8.68848 5.10938H9.3991V6.61688H8.68848V5.10938ZM15.3129 5.10938H16.0235V6.61688H15.3129V5.10938Z" fill="#7A442C"/>
<path d="M22.0086 23.2501H1.98173C1.26923 23.2501 1.11736 22.3858 1.11736 22.3858C0.288607 16.4439 1.11736 7.65764 1.11736 7.65764C1.11736 6.93201 1.70611 6.34326 2.43173 6.34326H21.5549C22.2805 6.34326 22.8692 6.93201 22.8692 7.65764C22.8692 7.65764 23.7167 17.8014 22.8692 22.3858C22.873 22.3858 22.6105 23.2501 22.0086 23.2501Z" fill="#7A442C"/>
<path d="M22.0086 23.2501H1.98173C1.26923 23.2501 1.11736 22.3858 1.11736 22.3858C0.288607 16.4439 1.11736 7.65764 1.11736 7.65764C1.11736 6.93201 1.70611 6.34326 2.43173 6.34326H21.5549C22.2805 6.34326 22.8692 6.93201 22.8692 7.65764C22.8692 7.65764 23.7167 17.8014 22.8692 22.3858C22.873 22.3858 22.6105 23.2501 22.0086 23.2501Z" fill="#7A442C"/>
<path d="M22.6914 8.81041C22.5957 8.12041 22.7645 7.28041 22.1795 6.77604C21.9455 6.56662 21.6423 6.4511 21.3282 6.45166H2.66449C1.35574 6.48541 1.33887 7.77541 1.29199 8.81041H1.35199C1.36512 12.8604 1.95199 15.2604 12.0189 15.2604C22.6632 15.2604 22.6876 13.1285 22.6876 8.81041H22.6914Z" fill="#7A442C"/>
<path d="M2.43339 6.34326C0.886514 6.45201 1.40776 7.91451 1.35526 8.61014C1.35526 8.61014 1.67589 7.71764 2.38464 7.71764H21.714C22.4284 7.71764 22.674 8.61014 22.674 8.61014C22.6253 7.91826 23.1671 6.50076 21.5565 6.34326H2.43339Z" fill="#A65F3E"/>
<path d="M22.8605 7.47959C22.8567 7.44618 22.851 7.41301 22.8436 7.38021C22.8417 7.36709 22.8361 7.35397 22.8342 7.34084C22.8267 7.30897 22.8173 7.27709 22.808 7.24709L22.7967 7.21334C22.7855 7.18147 22.7723 7.14959 22.7592 7.11771C22.756 7.10903 22.7516 7.10082 22.7461 7.09334C22.7311 7.05959 22.7142 7.02772 22.6955 6.99584L22.6842 6.97897C22.6641 6.94533 22.6422 6.91278 22.6186 6.88146C22.6167 6.87771 22.613 6.87397 22.6111 6.87209C22.5848 6.83834 22.5586 6.80647 22.5305 6.77459L22.5267 6.77084C22.4967 6.73896 22.4648 6.70709 22.4311 6.67709C22.5136 7.10271 22.5661 7.49084 22.5661 7.73459V8.76209H22.9523V8.71709L22.9467 8.63459L22.9355 8.48834L22.9298 8.41334C22.9261 8.36834 22.9242 8.32334 22.9205 8.28209L22.9148 8.20147C22.913 8.16397 22.9092 8.12646 22.9073 8.09271C22.9055 8.07584 22.9055 8.06271 22.9036 8.04771C22.9017 8.01209 22.898 7.97459 22.8961 7.94271C22.8942 7.91271 22.8923 7.88834 22.8905 7.86209C22.8886 7.84896 22.8886 7.83396 22.8867 7.82084C22.883 7.76646 22.8792 7.72897 22.8773 7.70272C22.8755 7.67647 22.8736 7.65771 22.8736 7.65771C22.8736 7.61084 22.8717 7.56396 22.8661 7.51709L22.8605 7.47959V7.47959ZM1.10859 7.76646C1.10672 7.78709 1.10484 7.80959 1.10297 7.83584C1.10065 7.85325 1.0994 7.87078 1.09922 7.88834C1.09734 7.91271 1.09547 7.93897 1.09172 7.96709C1.09172 7.97459 1.08984 7.98209 1.08984 7.98959V8.76209H1.47609V7.73459C1.47609 7.48334 1.53422 7.07084 1.62234 6.62646C1.50797 6.71646 1.41047 6.82334 1.33172 6.94521C1.32797 6.95084 1.32609 6.95459 1.32234 6.96021C1.30172 6.99396 1.28109 7.02771 1.26234 7.06334C1.25672 7.07459 1.25109 7.08584 1.24734 7.09521C1.23234 7.12521 1.21922 7.15709 1.20797 7.18896C1.20234 7.20209 1.19672 7.21709 1.19297 7.23022C1.18172 7.26022 1.17422 7.29209 1.16484 7.32209C1.16109 7.33709 1.15547 7.35209 1.15359 7.36896C1.14609 7.40084 1.14047 7.43459 1.13672 7.46834C1.13484 7.48334 1.13109 7.49834 1.12922 7.51147C1.12359 7.56022 1.11984 7.60709 1.11984 7.65771C1.11984 7.65771 1.11797 7.68584 1.11234 7.73834C1.11047 7.74584 1.11047 7.75709 1.10859 7.76646V7.76646Z" fill="#A06841"/>
<path d="M22.7264 9.80811C22.7246 11.7862 22.4396 12.7631 21.2677 13.71C19.9271 14.7937 17.0508 15.2775 11.9452 15.2775C7.1377 15.2775 4.23332 14.7356 2.80457 13.5712C1.5877 12.5812 1.32895 11.5762 1.31207 9.80811H1.09082C1.12832 13.8206 1.89332 16.1906 12.0202 16.1906C22.7396 16.1906 22.9477 14.0812 22.9514 9.80811H22.7264V9.80811Z" fill="#3E2723"/>
<path d="M22.9309 8.71521C22.8841 8.05146 22.8522 7.65771 22.8522 7.65771C22.8522 7.26584 22.6797 6.91709 22.4097 6.67521C22.4922 7.10084 22.5447 7.48897 22.5447 7.73272V8.73022C22.5447 10.8771 22.5447 12.4296 21.3222 13.4177C19.9816 14.5015 17.1053 14.9852 11.9997 14.9852C7.19219 14.9852 4.28781 14.4433 2.85906 13.279C1.55781 12.2196 1.45469 10.6033 1.45469 8.60084V7.73459C1.45469 7.48334 1.51281 7.07084 1.60094 6.62646C1.4442 6.74918 1.31749 6.906 1.23042 7.08502C1.14335 7.26403 1.09821 7.46053 1.09844 7.65959C1.09844 7.65959 1.08719 7.77584 1.07031 7.98959V8.60084C1.07031 12.8477 1.55219 15.3715 12.0016 15.3715C22.9441 15.3715 22.9328 13.1721 22.9309 8.71521V8.71521Z" fill="#A06841"/>
<path d="M0.894531 20.2314C0.941406 20.7358 1.05391 21.9114 1.11953 22.3858C1.11953 22.3858 1.26953 23.2502 1.98391 23.2502H22.0108C22.6127 23.2502 22.8752 22.3858 22.8752 22.3858C22.9577 21.9414 23.072 20.8446 23.132 20.2577C23.132 20.2577 22.8039 20.7302 21.1764 21.0977C19.5508 21.4633 16.322 21.1971 12.9508 21.1933C8.46578 21.1877 3.75578 21.3321 2.49578 21.0133C1.42891 20.7452 0.894531 20.2314 0.894531 20.2314V20.2314Z" fill="#603C24"/>
<path d="M12.4195 4.85248C13.1827 4.85811 13.9064 4.98936 14.482 5.18061C14.6845 5.24811 15.5208 5.77123 15.817 5.70936C15.9745 5.67186 16.3158 5.54061 16.2352 5.10936C16.1452 4.62561 15.442 4.57498 14.902 4.37623C14.1389 4.09686 13.2595 3.99561 12.4195 3.99561C11.6114 3.99561 10.7733 4.08936 10.0327 4.34061C9.4814 4.52811 8.43328 4.79623 8.54203 5.30248C8.64515 5.78811 9.2039 5.74311 9.34078 5.67561C9.73828 5.48061 10.0552 5.31561 10.4995 5.15436C11.0714 4.94623 11.7708 4.84873 12.4195 4.85248V4.85248Z" fill="#7A442C"/>
<path d="M12.3971 4.19611C14.1071 4.19611 14.829 4.71361 15.2227 4.98924C16.1827 5.66049 16.2483 5.27799 16.2352 5.10924C16.1846 4.44736 15.5096 3.95424 14.9565 3.68611C14.1765 3.30736 13.2746 3.17236 12.414 3.17236C11.5871 3.17236 10.7302 3.29799 9.97083 3.64111C9.40646 3.89424 8.40896 4.52986 8.52146 5.22174C8.61146 5.76549 9.32583 5.23674 9.46458 5.14486C9.87333 4.88236 10.6196 4.19611 12.3971 4.19611V4.19611Z" fill="#A65F3E"/>
<path opacity="0.68" d="M8.74706 5.10928C8.59706 4.83178 8.92893 4.47928 9.07331 4.35928C9.36206 4.12116 9.68831 3.91678 10.0352 3.77616C10.2133 3.70491 10.7327 3.59616 10.7589 3.87553C10.7852 4.15866 10.0708 4.43991 9.89081 4.52803C9.24956 4.84116 8.88956 5.37553 8.74706 5.10928V5.10928Z" fill="#E6A467"/>
<path d="M13.1364 17.8257H10.8639C10.7177 17.8257 10.5977 17.7076 10.5977 17.5595V16.1007C10.5977 15.9545 10.7158 15.8345 10.8639 15.8345H13.1345C13.2808 15.8345 13.4008 15.9526 13.4008 16.1007V17.5595C13.4008 17.7076 13.2827 17.8257 13.1364 17.8257Z" fill="#3E2723"/>
<path d="M13.3048 15.3767H10.6948C10.5841 15.3767 10.4941 15.2867 10.4941 15.176V14.3867C10.4941 14.276 10.5841 14.186 10.6948 14.186H13.3066C13.4173 14.186 13.5073 14.276 13.5073 14.3867V15.176C13.5054 15.2867 13.4154 15.3767 13.3048 15.3767ZM13.1379 17.4467H10.8616C10.7566 17.4467 10.6704 17.3604 10.6704 17.2554V15.986C10.6704 15.881 10.7566 15.7948 10.8616 15.7948H13.1398C13.2448 15.7948 13.331 15.881 13.331 15.986V17.2554C13.3291 17.3604 13.2448 17.4467 13.1379 17.4467Z" fill="#E6A467"/>
<path d="M11.0196 14.7804C11.0196 15.2117 10.954 15.2586 10.8115 15.2586C10.669 15.2586 10.6465 15.1198 10.6465 14.7767C10.6465 14.4336 10.6709 14.3154 10.8227 14.3154C10.9746 14.3154 11.0196 14.3492 11.0196 14.7804V14.7804ZM11.2596 16.5861C11.2596 16.9986 11.2671 17.2423 11.0684 17.2423C10.8677 17.2423 10.849 17.0098 10.849 16.5748C10.849 16.2617 10.849 16.0048 11.0571 16.0048C11.2634 16.0029 11.2596 16.1717 11.2596 16.5861V16.5861Z" fill="#FFF59D"/>
</svg>
