<svg width="30" height="30" viewBox="0 0 30 30" fill="none" xmlns="http://www.w3.org/2000/svg">
<rect width="30" height="30" rx="4" fill="white" style="fill:white;fill-opacity:1;"/>
<path d="M24.0628 12.7399H23.2875V12.7H14.625V16.55H20.0646C19.271 18.7912 17.1386 20.4 14.625 20.4C11.4358 20.4 8.85 17.8142 8.85 14.625C8.85 11.4358 11.4358 8.85 14.625 8.85C16.0971 8.85 17.4365 9.40536 18.4562 10.3125L21.1787 7.59009C19.4596 5.98801 17.1602 5 14.625 5C9.30959 5 5 9.30959 5 14.625C5 19.9404 9.30959 24.25 14.625 24.25C19.9404 24.25 24.25 19.9404 24.25 14.625C24.25 13.9796 24.1836 13.3497 24.0628 12.7399Z" fill="#FFC107" style="fill:#FFC107;fill:color(display-p3 1.0000 0.7569 0.0275);fill-opacity:1;"/>
<path d="M6.10999 10.145L9.27228 12.4642C10.1279 10.3457 12.2002 8.85 14.6252 8.85C16.0974 8.85 17.4367 9.40536 18.4565 10.3125L21.1789 7.59009C19.4599 5.98801 17.1604 5 14.6252 5C10.9283 5 7.72217 7.08718 6.10999 10.145Z" fill="#FF3D00" style="fill:#FF3D00;fill:color(display-p3 1.0000 0.2392 0.0000);fill-opacity:1;"/>
<path d="M14.6247 24.2499C17.1108 24.2499 19.3698 23.2985 21.0778 21.7513L18.0988 19.2305C17.1 19.9901 15.8795 20.4009 14.6247 20.3999C12.1212 20.3999 9.99554 18.8036 9.19474 16.5759L6.05603 18.9942C7.64897 22.1112 10.8839 24.2499 14.6247 24.2499Z" fill="#4CAF50" style="fill:#4CAF50;fill:color(display-p3 0.2980 0.6863 0.3137);fill-opacity:1;"/>
<path d="M24.0628 12.7399H23.2875V12.7H14.625V16.55H20.0646C19.685 17.6167 19.0012 18.5487 18.0977 19.231L18.0991 19.2301L21.0781 21.7509C20.8673 21.9424 24.25 19.4375 24.25 14.625C24.25 13.9796 24.1836 13.3497 24.0628 12.7399Z" fill="#1976D2" style="fill:#1976D2;fill:color(display-p3 0.0980 0.4627 0.8235);fill-opacity:1;"/>
</svg>
