<svg width="37" height="18" viewBox="0 0 37 18" fill="none" xmlns="http://www.w3.org/2000/svg">
<rect x="0.5" y="0.5" width="36" height="17" rx="8.5" fill="#E3ECFF" style="fill:#E3ECFF;fill:color(display-p3 0.8902 0.9255 1.0000);fill-opacity:1;"/>
<rect x="0.5" y="0.5" width="36" height="17" rx="8.5" stroke="#0969DA" style="stroke:#0969DA;stroke:color(display-p3 0.0353 0.4118 0.8549);stroke-opacity:1;"/>
<path d="M14.669 5.72727V13H13.6605L9.96378 7.66619H9.89631V13H8.79901V5.72727H9.81463L13.5149 11.0682H13.5824V5.72727H14.669ZM18.1353 13.1101C17.5979 13.1101 17.1351 12.9953 16.7468 12.7656C16.3609 12.5336 16.0627 12.2081 15.852 11.7891C15.6436 11.3677 15.5395 10.8741 15.5395 10.3082C15.5395 9.74953 15.6436 9.2571 15.852 8.83097C16.0627 8.40483 16.3562 8.07221 16.7326 7.8331C17.1114 7.59399 17.5541 7.47443 18.0608 7.47443C18.3685 7.47443 18.6668 7.52533 18.9556 7.62713C19.2445 7.72893 19.5037 7.88873 19.7333 8.10653C19.963 8.32434 20.1441 8.60724 20.2767 8.95526C20.4092 9.3009 20.4755 9.72112 20.4755 10.2159V10.5923H16.1396V9.79688H19.435C19.435 9.51752 19.3782 9.27012 19.2646 9.05469C19.151 8.83688 18.9912 8.66525 18.7852 8.53977C18.5816 8.4143 18.3425 8.35156 18.0679 8.35156C17.7696 8.35156 17.5092 8.42495 17.2866 8.57173C17.0664 8.71615 16.896 8.90554 16.7752 9.13991C16.6569 9.37192 16.5977 9.62405 16.5977 9.89631V10.5178C16.5977 10.8823 16.6616 11.1925 16.7895 11.4482C16.9197 11.7038 17.1008 11.8991 17.3328 12.0341C17.5648 12.1667 17.8359 12.233 18.146 12.233C18.3472 12.233 18.5307 12.2045 18.6964 12.1477C18.8621 12.0885 19.0054 12.0009 19.1261 11.8849C19.2468 11.7689 19.3392 11.6257 19.4031 11.4553L20.4081 11.6364C20.3276 11.9323 20.1832 12.1915 19.9748 12.4141C19.7689 12.6342 19.5096 12.8059 19.1971 12.929C18.887 13.0497 18.5331 13.1101 18.1353 13.1101ZM22.4264 13L20.8213 7.54545H21.9186L22.9875 11.5511H23.0407L24.1132 7.54545H25.2105L26.2758 11.5334H26.3291L27.3909 7.54545H28.4882L26.8866 13H25.8035L24.6956 9.06179H24.6139L23.5059 13H22.4264Z" fill="#11243E" style="fill:#11243E;fill:color(display-p3 0.0667 0.1412 0.2431);fill-opacity:1;"/>
</svg>
